<svg width="200" height="226" viewBox="0 0 200 226" fill="none" xmlns="http://www.w3.org/2000/svg">
<path d="M18.6041 203.408L0.5 0H199.5L181.372 203.376L99.8791 226L18.6041 203.408Z" fill="#1572B6"/>
<path d="M100 208.711L165.855 190.429L181.348 16.6352H100V208.711Z" fill="#33A9DC"/>
<path d="M100 90.3274H132.968L135.241 64.7813H100V39.8325H100.089H162.47L155.755 115.276H100V90.3274Z" fill="white"/>
<path d="M100.153 155.117L100.04 155.149L72.2957 147.643L70.5224 127.746H45.5104L49.0006 166.917L100.032 181.107L100.153 181.074V155.117Z" fill="#EBEBEB"/>
<path d="M130.848 114.219L127.849 147.626L100.064 155.133V181.091L151.136 166.917L155.844 114.219H130.848Z" fill="white"/>
<path d="M100.089 39.8325V64.7813H39.9083L37.6755 39.8325H100.089Z" fill="#EBEBEB"/>
<path d="M100 90.3274V115.276L72.602 115.276L70.3773 90.3274L100 90.3274Z" fill="#EBEBEB"/>
</svg>
