<svg width="52" height="67" viewBox="0 0 52 67" fill="none" xmlns="http://www.w3.org/2000/svg">
<path d="M49.504 0.471998C47.52 2.648 45.28 5.08 42.784 7.768C40.288 10.392 37.664 13.112 34.912 15.928C32.224 18.68 29.536 21.4 26.848 24.088C24.16 26.776 21.632 29.272 19.264 31.576C22.016 33.496 24.928 35.864 28 38.68C31.072 41.496 34.08 44.504 37.024 47.704C39.968 50.904 42.72 54.168 45.28 57.496C47.904 60.824 50.08 63.992 51.808 67H40.864C38.944 63.992 36.736 60.984 34.24 57.976C31.744 54.904 29.088 51.992 26.272 49.24C23.52 46.424 20.704 43.832 17.824 41.464C15.008 39.096 12.256 37.08 9.568 35.416V67H0.256V0.471998H9.568V29.848C11.808 27.736 14.272 25.368 16.96 22.744C19.648 20.056 22.304 17.368 24.928 14.68C27.552 11.992 30.016 9.432 32.32 7C34.688 4.504 36.672 2.328 38.272 0.471998H49.504Z" fill="#FFF27A"/>
</svg>
