<svg width="200" height="226" viewBox="0 0 200 226" fill="none" xmlns="http://www.w3.org/2000/svg">
<path fill-rule="evenodd" clip-rule="evenodd" d="M18.8582 203.009L0.803284 0.499847H199.196L181.122 202.977L99.8784 225.5L18.8582 203.009Z" fill="#E55638"/>
<path fill-rule="evenodd" clip-rule="evenodd" d="M100 208.284L165.648 190.083L181.095 17.0581H100V208.284Z" fill="#F26B3A"/>
<path fill-rule="evenodd" clip-rule="evenodd" d="M100 92.166H67.1346L64.8646 66.7323H100V41.8955H99.9136H37.7212L44.4199 117.002H100V92.166Z" fill="#EAEAEA"/>
<path fill-rule="evenodd" clip-rule="evenodd" d="M100 156.67L99.8916 156.698L72.2305 149.229L70.4616 129.421H45.5294L49.0094 168.418L99.8857 182.542L100 182.51V156.67Z" fill="#EAEAEA"/>
<path fill-rule="evenodd" clip-rule="evenodd" d="M99.9136 92.166V117.002H130.498L127.615 149.214L99.9136 156.69V182.53L150.83 168.418L157.041 98.8351L157.646 92.166H99.9136Z" fill="#FEFEFE"/>
<path fill-rule="evenodd" clip-rule="evenodd" d="M99.9136 41.8955V66.7323H159.906L162.13 41.8955H99.9136Z" fill="#FEFEFE"/>
</svg>
