<svg width="221" height="221" viewBox="0 0 221 221" fill="none" xmlns="http://www.w3.org/2000/svg">
<path d="M221 20C221 8.95431 212.046 0 201 0H20C8.95431 0 0 8.9543 0 20V201C0 212.046 8.9543 221 20 221H201C212.046 221 221 212.046 221 201V20Z" fill="#F5DE19"/>
<path d="M139.551 177.843C144.366 175.039 150.514 177.161 154.923 180.567C155.554 181.054 156.213 181.51 156.896 181.93C160.527 184.165 164.715 185.328 168.978 185.285C177.581 185.285 183.083 180.983 183.083 175.024C183.083 167.921 177.431 165.379 167.96 161.235L162.767 159.009C147.77 152.624 137.825 144.629 137.825 127.722C137.825 112.15 149.664 100.287 168.236 100.287C174.248 99.8525 180.255 101.198 185.507 104.155C188.344 105.753 190.893 107.782 193.07 110.156C196.236 113.608 194.759 118.843 190.813 121.366L188.717 122.705C184.992 125.086 179.932 123.224 176.256 120.769V120.769C173.875 119.179 171.067 118.35 168.205 118.393C166.956 118.268 165.694 118.404 164.501 118.794C163.308 119.183 162.209 119.817 161.274 120.654C160.339 121.492 159.589 122.515 159.071 123.659C158.554 124.802 158.28 126.041 158.268 127.296C158.268 133.523 162.127 136.049 171.038 139.925L176.232 142.15C193.88 149.72 203.857 157.431 203.857 174.772C203.857 193.47 189.168 203.715 169.444 203.715C161.759 204.204 154.096 202.459 147.38 198.691C143.357 196.433 139.776 193.506 136.781 190.057C133.407 186.171 135.104 180.433 139.551 177.843V177.843ZM65.99 179.976C70.9694 176.956 76.7842 179.406 81.4333 182.913C83.2725 184.3 85.5085 185.135 88.4552 185.135C95.2747 185.135 99.5842 182.467 99.5842 172.088V111.854C99.5842 106.119 104.233 101.471 109.967 101.471V101.471C115.702 101.471 120.35 106.119 120.35 111.854V172.364C120.35 193.864 107.722 203.651 89.3392 203.651C82.8415 204.007 76.3883 202.387 70.828 199.006C67.8864 197.218 65.2675 194.98 63.0571 192.391C59.6742 188.428 61.5349 182.678 65.99 179.976V179.976Z" fill="black"/>
</svg>
