<svg width="60" height="46" viewBox="0 0 60 46" fill="none" xmlns="http://www.w3.org/2000/svg">
<path d="M52.5 0.5H7.5C3.35811 0.5 0 3.85811 0 8V38C0 42.1418 3.35811 45.5 7.5 45.5H52.5C56.6418 45.5 60 42.1418 60 38V8C60 3.85811 56.6418 0.5 52.5 0.5ZM40.155 20.5134L56.0304 6.90863C56.1402 7.2602 56.25 7.61177 56.25 8V38C56.25 38.2601 56.151 38.4908 56.1 38.7362L40.155 20.5134ZM52.5 4.25C52.749 4.25 52.9686 4.34528 53.2032 4.39286L30 24.2819L6.79686 4.39286C7.03125 4.34528 7.25097 4.25 7.5 4.25H52.5ZM3.89835 38.7323C3.84702 38.4869 3.75 38.2601 3.75 38V8C3.75 7.61177 3.86169 7.2602 3.97161 6.90863L19.8414 20.5098L3.89835 38.7323ZM7.5 41.75C7.12101 41.75 6.77673 41.6402 6.43065 41.534L22.6904 22.9523L28.7806 28.1708C29.1302 28.475 29.566 28.625 30 28.625C30.4338 28.625 30.8697 28.475 31.2195 28.1708L37.3095 22.9524L53.5692 41.534C53.2251 41.6402 52.881 41.75 52.5 41.75H7.5Z" fill="white"/>
</svg>
