<svg width="100" height="100" viewBox="0 0 100 100" fill="none" xmlns="http://www.w3.org/2000/svg">
<path d="M50 100C77.6142 100 100 77.6142 100 50C100 22.3858 77.6142 0 50 0C22.3858 0 0 22.3858 0 50C0 77.6142 22.3858 100 50 100Z" fill="url(#paint0_linear_2_42)"/>
<path fill-rule="evenodd" clip-rule="evenodd" d="M22.6328 49.4722C37.2089 43.1217 46.9285 38.935 51.7917 36.9122C65.6773 31.1367 68.5625 30.1335 70.4431 30.1004C70.8568 30.0931 71.7816 30.1956 72.3806 30.6817C72.8865 31.0921 73.0257 31.6466 73.0923 32.0357C73.1589 32.4249 73.2418 33.3114 73.1759 34.0041C72.4234 41.9102 69.1675 61.0965 67.5111 69.9515C66.8102 73.6984 65.4301 74.9548 64.0941 75.0777C61.1905 75.3449 58.9856 73.1588 56.1733 71.3153C51.7727 68.4306 49.2866 66.6349 45.015 63.82C40.0784 60.5669 43.2786 58.7789 46.0919 55.8569C46.8282 55.0921 59.6215 43.4556 59.8691 42.4C59.9001 42.268 59.9288 41.7759 59.6365 41.516C59.3441 41.2562 58.9126 41.345 58.6012 41.4157C58.1599 41.5159 51.1298 46.1625 37.511 55.3556C35.5155 56.7259 33.708 57.3935 32.0886 57.3585C30.3034 57.3199 26.8693 56.3491 24.3164 55.5192C21.1851 54.5014 18.6964 53.9632 18.9131 52.2346C19.026 51.3343 20.2659 50.4134 22.6328 49.4722Z" fill="white"/>
<defs>
<linearGradient id="paint0_linear_2_42" x1="5000" y1="0" x2="5000" y2="9925.83" gradientUnits="userSpaceOnUse">
<stop stop-color="#2AABEE"/>
<stop offset="1" stop-color="#229ED9"/>
</linearGradient>
</defs>
</svg>
