<svg width="114" height="114" viewBox="0 0 114 114" fill="none" xmlns="http://www.w3.org/2000/svg">
<path d="M0 58.88C0 34.8949 0 22.9024 8.01356 15.4512C16.0271 8 28.9247 8 54.72 8H59.28C85.0753 8 97.9728 8 105.987 15.4512C114 22.9024 114 34.8949 114 58.88V63.12C114 87.1052 114 99.0975 105.987 106.549C97.9728 114 85.0753 114 59.28 114H54.72C28.9247 114 16.0271 114 8.01356 106.549C0 99.0975 0 87.1052 0 63.12V58.88Z" fill="#0077FF"/>
<path d="M60.3939 84C34.4276 84 19.6171 67.4835 19 40H32.0069C32.4341 60.1722 42.0229 68.7167 49.6181 70.4785V40H61.866V57.3974C69.3663 56.6486 77.2454 48.7207 79.9037 40H92.1513C90.1101 50.7467 81.5654 58.6747 75.4892 61.9339C81.5654 64.5766 91.2973 71.4915 95 84H81.518C78.6223 75.6316 71.4075 69.1572 61.866 68.2763V84H60.3939Z" fill="white"/>
</svg>
